<svg width="32" height="32" xmlns="http://www.w3.org/2000/svg">

 <g>
  <title>background</title>
  <rect fill="none" id="canvas_background" height="402" width="582" y="-1" x="-1"/>
 </g>
 <g>
  <title>Layer 1</title>
  <path fill="#7f3f00" id="svg_2" d="m26.19238,21.67627l-18.16894,0l3.82959,-19.4834c0.01294,-0.06579 -0.00092,-0.12829 -0.00104,-0.19287l-1.99976,0l-7.35223,0c-0.55225,0 -1,0.44775 -1,1s0.44775,1 1,1l6.95911,0l-3.63294,18.4834c-0.05762,0.29346 0.01904,0.59717 0.20899,0.82812s0.47363,0.36475 0.77246,0.36475l19.38476,0c0.55225,0 1,-0.44775 1,-1s-0.44775,-1 -1,-1z" class="st1"/>
  <circle fill="#7f3f00" id="svg_3" r="2" cy="28" cx="19.625601" class="st1"/>
  <circle fill="#7f3f00" id="svg_4" r="2" cy="28" cx="12.204927" class="st1"/>
  <path fill="#7f3f00" id="svg_5" d="m10.87158,2l-2.75171,14l15.41376,0l6.96637,-14l-19.62842,0zm10.91748,5.64502l-4.12402,4.12402c-0.19531,0.19532 -0.45117,0.29297 -0.70703,0.29297s-0.51172,-0.09765 -0.70703,-0.29297l-1.87598,-1.87597c-0.39062,-0.39063 -0.39062,-1.02344 0,-1.41407s1.02344,-0.39062 1.41406,0l1.16895,1.16895l3.41699,-3.41699c0.39063,-0.39063 1.02344,-0.39063 1.41406,0s0.39063,1.02343 0,1.41406z" class="st1"/>
 </g>
</svg>