<svg width="32" height="32" xmlns="http://www.w3.org/2000/svg">

 <g>
  <title>background</title>
  <rect fill="none" id="canvas_background" height="402" width="582" y="-1" x="-1"/>
 </g>
 <g>
  <title>Layer 1</title>
  <path fill="#7f3f00" id="svg_3" d="m15.19141,19.74902c-0.25586,0 -0.51172,-0.09765 -0.70703,-0.29297l-2.50098,-2.50097c-0.39063,-0.39063 -0.39063,-1.02344 0,-1.41406s1.02344,-0.39063 1.41406,0l1.79395,1.79394l4.79199,-4.79101c0.39062,-0.39063 1.02344,-0.39063 1.41406,0s0.39063,1.02343 0,1.41406l-5.49902,5.49804c-0.19531,0.19532 -0.45117,0.29297 -0.70703,0.29297z"/>
  <path id="svg_5" d="m16,29c-7.16846,0 -13,-5.83203 -13,-13s5.83154,-13 13,-13s13,5.83203 13,13s-5.83154,13 -13,13zm0,-24c-6.06543,0 -11,4.93457 -11,11s4.93457,11 11,11s11,-4.93457 11,-11s-4.93457,-11 -11,-11z"/>
 </g>
</svg>